inDegrees=no
num_controls=7
num_derivatives=13
num_iterations=124
num_multipliers=7
num_parameters=0
num_slacks=7
num_states=26
objective=5.506762
objective_accelerations=0.793160
objective_balance=0.026077
objective_effort=0.188231
objective_height=4.379568
objective_ligament=0.119726
solver_duration=1450.677374
status=Solve_Succeeded
success=true
DataType=double
version=3
OpenSimVersion=4.4-2022-07-23-0e9fedc
endheader
time	/jointset/ground_pelvis/pelvis_tilt/value	/jointset/ground_pelvis/pelvis_tx/value	/jointset/ground_pelvis/pelvis_ty/value	/jointset/hip_l/hip_flexion_l/value	/jointset/hip_l/hip_adduction_l/value	/jointset/hip_l/hip_rotation_l/value	/jointset/back/lumbar_extension/value	/jointset/patellofemoral_l/patellar_flexion_l/value	/jointset/knee_l/knee_flexion_l/value	/jointset/knee_l/knee_adduction_l/value	/jointset/knee_l/knee_rotation_l/value	/jointset/ankle_l/ankle_angle_l/value	/jointset/subtalar_l/subtalar_angle_l/value	/jointset/ground_pelvis/pelvis_tilt/speed	/jointset/ground_pelvis/pelvis_tx/speed	/jointset/ground_pelvis/pelvis_ty/speed	/jointset/hip_l/hip_flexion_l/speed	/jointset/hip_l/hip_adduction_l/speed	/jointset/hip_l/hip_rotation_l/speed	/jointset/back/lumbar_extension/speed	/jointset/patellofemoral_l/patellar_flexion_l/speed	/jointset/knee_l/knee_flexion_l/speed	/jointset/knee_l/knee_adduction_l/speed	/jointset/knee_l/knee_rotation_l/speed	/jointset/ankle_l/ankle_angle_l/speed	/jointset/subtalar_l/subtalar_angle_l/speed	/forceset/tau_hip_flexion_l	/forceset/tau_hip_adduction_l	/forceset/tau_hip_rotation_l	/forceset/tau_knee_flexion_l	/forceset/tau_ankle_angle_l	/forceset/tau_subtalar_angle_l	/forceset/tau_lumbar_extension	lambda_cid13_p0	lambda_cid13_p1	lambda_cid13_p2	lambda_cid13_p3	lambda_cid13_p4	lambda_cid13_p5	lambda_cid14_p0	/jointset/ground_pelvis/pelvis_tilt/accel	/jointset/ground_pelvis/pelvis_tx/accel	/jointset/ground_pelvis/pelvis_ty/accel	/jointset/hip_l/hip_flexion_l/accel	/jointset/hip_l/hip_adduction_l/accel	/jointset/hip_l/hip_rotation_l/accel	/jointset/back/lumbar_extension/accel	/jointset/patellofemoral_l/patellar_flexion_l/accel	/jointset/knee_l/knee_flexion_l/accel	/jointset/knee_l/knee_adduction_l/accel	/jointset/knee_l/knee_rotation_l/accel	/jointset/ankle_l/ankle_angle_l/accel	/jointset/subtalar_l/subtalar_angle_l/accel	gamma_cid13_p0	gamma_cid13_p1	gamma_cid13_p2	gamma_cid13_p3	gamma_cid13_p4	gamma_cid13_p5	gamma_cid14_p0
1	-0.5039619515424862	-0.004476356313977598	0.5765834687907807	1.789819983343422	-0.3445831280336401	0.1486154758870441	-0.4363174214591306	1.542903790705802	1.542903790705846	0.06277331246478091	-0.1745205060257187	0.4345372009329318	0.2520215907614219	-0.1417935311439853	-0.004805761125292789	0.03217243243731688	0.03293975214121875	0.001219255423689958	-0.06661001771879756	0.0001560230187284117	-0.1524230110039823	-0.1524230110039736	0.007049836376355749	-3.418352153225779e-05	-0.05672444765285672	-0.03239341225412533	-0.2654320703282244	0.03527105726192456	-0.01279693999894816	-0.2744246221555727	-0.05687794956103737	0.01088462576812372	0.2231462029900414	-50.59106221359795	8.542515790056937	-6.682006677532243	8.064740816829147	-546.863988489434	-66.10263431283578	-0.0235246994784363	1.662576680225148	0.1849470115975606	2.089802681369079	-6.927779044534621	-0.2535604293347613	-1.695572281059084	-0.02174716031864711	-5.680309757775805	-5.680309757775824	-0.7945334186301083	-0.03692382996047127	-0.9085881414102066	-0.9513206582920117	-2.493696107987644e-09	-1.416603922282665e-07	-2.227075273218783e-08	-1.14268890773166e-08	-7.860438179507076e-09	-1.662448515108025e-07	-6.847150154828838e-10
1.01	-0.5052974732747055	-0.00451517703948901	0.5770094814951197	1.78980403251857	-0.3445828118282256	0.1478662364538074	-0.4363160444308474	1.541095888490894	1.541095888490968	0.06280359291314608	-0.1745208713481145	0.4339245172601676	0.2516514350393295	-0.1252988018061109	-0.002952693372669156	0.0530221925075603	-0.03612271701036907	-0.001148343319573875	-0.08322967021821755	0.0001152670719427987	-0.2091561385950695	-0.2091561385950208	-0.0009876631613040786	-3.89943906934902e-05	-0.06582737352659379	-0.04162748252867812	-0.2658054711297883	0.03534928908700644	-0.0128594255246521	-0.2735185036564334	-0.05711303937745719	0.01093211030830933	0.2233254140481447	-50.63024876848753	8.4941191210812	-6.634729070979701	7.985770077389506	-546.6832776715984	-65.96290956558792	-0.02354295270391245	1.644723268303932	0.1863363336634687	2.081372629941045	-6.894400779959705	-0.2272027254492079	-1.643944825897607	0.004142849462992882	-5.669619900522051	-5.669619900515831	-0.8074618377323388	0.01770446054605716	-0.9134168877652581	-0.9078796196538864	-3.563685895014997e-09	-1.806343665257144e-07	-3.754529351118714e-08	-1.948918006549098e-08	-1.320361753253665e-08	-2.007545419259351e-07	-1.749250268891122e-09
1.02	-0.5064676872719989	-0.004535297152159771	0.577643753792179	1.789097673016447	-0.3446059402359444	0.1469510438772726	-0.4363151984295098	1.538720693871927	1.538720693871904	0.06275367764303333	-0.1745212919439993	0.4332203499131757	0.2511892527329666	-0.108731984158795	-0.001065638557162901	0.07382435098143776	-0.1051419833414688	-0.003469667207908963	-0.09980064637820917	4.981757803922188e-05	-0.2658814918160288	-0.2658814918159402	-0.008989307354914565	-4.523822225358337e-05	-0.07502118249672277	-0.05079872910791077	-0.2661788719303442	0.03542752091216227	-0.01292191104966255	-0.2726123851573199	-0.05734812919405655	0.01097959484849178	0.2235046251073018	-50.67361606978588	8.445681434606556	-6.586561691145444	7.907402217236317	-546.6115117823509	-65.81562043227163	-0.02356260713200303	1.676994342113365	0.1917444241741019	2.0802823620959	-6.919138480437039	-0.2443054583489325	-1.685837013173481	-0.02668586974218147	-5.678754883750252	-5.678754883750301	-0.7873623498200716	-0.03721042244004603	-0.9267647606885487	-0.9387559192278179	-3.907202414816265e-09	-2.194246100101597e-07	-5.145595430816304e-08	-2.900490713486246e-08	-1.790572537831628e-08	-2.341233809206979e-07	-3.083833370862984e-09
1.03	-0.5074718046038902	-0.004536359475610397	0.5784857103305836	1.787701524894717	-0.3446520029617425	0.1458704341249591	-0.4363151770007918	1.535778424923816	1.535778424923777	0.06262399924666445	-0.1745217764710217	0.4324236969325935	0.2506357136938878	-0.09207264204398884	0.0008605938089714275	0.09454921063228917	-0.1740622484131702	-0.005730709441998044	-0.1163066899919047	-5.454756369547163e-05	-0.3225571513209592	-0.3225571513208692	-0.01693509660265935	-5.140822508807168e-05	-0.08433357304126346	-0.05989472310741026	-0.266295642736034	0.03549103322862369	-0.01296343045910766	-0.2714630591112521	-0.05758046161079743	0.01109868032389233	0.2235135048881867	-50.6822550814996	8.341923917846078	-6.508851529438548	7.822788890908551	-546.1848209355832	-65.70972298215314	-0.02359004950030585	1.66322935324573	0.1941678693241139	2.065921307834845	-6.874662630383738	-0.2151663926108394	-1.63081531589594	-0.003664196362641717	-5.659698618882542	-5.659698618882399	-0.7965203721057071	0.01768986564287033	-0.9371130256407376	-0.8928189044771193	-4.243305942094814e-09	-2.582129786903907e-07	-6.535269796246522e-08	-3.853546518465432e-08	-2.260129167810356e-08	-2.674805785744365e-07	-4.421172063126314e-09
